# xmcd CD database file
#
# Track frame offsets:
#	150
#	17519
#	39500
#	54724
#	74654
#	91229
#	109377
#	120770
#	130454
#	152463
#	174179
#	190921
#	207653
#
# Disc length: 3034 seconds
#
# Revision: 0
# Processed by: cddbd v1.5.2PL0 Copyright (c) Steve Scherf et al.
# Submitted via: CDex 1.51
#
DISCID=af0bd80d
DTITLE=Mac Arnold and Plate Full O'Blues - Give It Away
DYEAR=2015
DGENRE=Blues
TTITLE0=Nickel And Dime
TTITLE1=Don`t Burn My Cornbread
TTITLE2=Uncle Dewitt`s Cafe
TTITLE3=Damned If I Do
TTITLE4=Give It Away
TTITLE5=Fool Hearted Lover
TTITLE6=Nitty Gritty
TTITLE7=How I Need You
TTITLE8=Train Smoke
TTITLE9=Relationship Man
TTITLE10=I`ll Take Care Of You
TTITLE11=Amos Moses
TTITLE12=Memories
EXTD=YEAR: 2015
EXTT0=
EXTT1=
EXTT2=
EXTT3=
EXTT4=
EXTT5=
EXTT6=
EXTT7=
EXTT8=
EXTT9=
EXTT10=
EXTT11=
EXTT12=
PLAYORDER=
